<svg xmlns="http://www.w3.org/2000/svg" width="300" height="260" viewBox="0 0 1221 1060"><title>Adaptation AI</title><g fill="none"><path fill="#F59E0B" d="M927.7.7c-.4.3-.7 3.5-.7 7V14h14V0h-6.3c-3.5 0-6.7.3-7 .7M710 89v7h14V82h-14zM904.2 101.7l.3 6.8 6.8.3 6.7.3V95h-14.1zM816.2 129.7l.3 6.8 6.8.3 6.7.3V123h-14.1zM867 198v10h20v-20h-20zM674 198v7h15v-14h-15zM769 204.5V218h27v-27h-27zM784 250v18h-39.9l-.3-13.3-.3-13.2-13.2-.3-13.3-.3V269h26v52h43v20h-12v17h12l-.1 134.2c0 87.2-.4 133.6-1 132.3-.5-1.1-30.6-72.7-66.7-159l-65.8-157-74.8-.3-74.9-.2.6 3.7c7 44.4-.5 92.2-20.9 133.3-12.2 24.5-25.7 43.1-45.1 62.2l-11 10.8 35.8.2 35.8.3-43.9 76c-24.2 41.8-44 76.3-44 76.7 0 .5 19.9.8 44.3.8h44.3l34.9-83.3c19.2-45.7 35.7-85.2 36.8-87.6l1.9-4.4 24 55.9c13.1 30.7 24.2 56.2 24.6 56.5.4.4 12.4-19.6 26.7-44.4s26.4-45 26.9-45c.8.1 78.1 133 86.3 148.3 1.9 3.6 22.8 40.1 46.5 81.2l43.1 74.8 2-3.3c16-26.5 75.9-124.6 78.3-128.5l3.4-5.2v-35.1l-38.7-67.1c-21.4-37-38.7-67.6-38.5-68 .1-.5 17.5-30.8 38.7-67.5l38.5-66.6V307l-8.7-.2c-4.9-.1-13.2-.1-18.5.1l-9.8.3V255h-56v52h-45v-34.9l13.8-.3 13.7-.3.3-19.8.2-19.7h-40z"/><path fill="#F59E0B" d="M688 291v7.1l6.8-.3 6.7-.3.3-6.8.3-6.7H688zM4.8 1049.5.1 1060H35l-2.6-5.8c-1.4-3.1-3.5-7.8-4.6-10.5l-2-4.7h-8.2l-8.1.1zM175 1049.5v10.5h16v-21h-16zM1109.8 1049.5l-4.6 10.5h34.8l-2.6-5.8c-1.4-3.1-3.5-7.8-4.6-10.5l-2-4.7h-16.3zM1204 1049.5v10.5h17v-21h-17zM735.4 1043.4c-4.1 4.1-4.7 9.7-1.3 14 1.9 2.4 2.7 2.6 8.9 2.6s7-.2 8.9-2.6c3.4-4.3 2.8-9.9-1.3-14-2.8-2.8-4.2-3.4-7.6-3.4s-4.8.6-7.6 3.4M483.5 1049.7c-1.6.2-4.9.6-7.2.9l-4.3.5v8.9h16v-4.9c0-5.5-.2-5.8-4.5-5.4M679.5 1049.7c-1.6.2-4.9.6-7.2.9l-4.3.5v8.9h16v-4.9c0-5.5-.2-5.8-4.5-5.4"/><path fill="#F59E0B" d="M398.7 520.2c-.3.7-7.6 18.2-16.2 38.8-8.7 20.6-15.8 37.9-15.9 38.5-.1.5-.5 1.5-.9 2.1-.8 1.3-29.7 70.4-29.7 71 0 .2 16.5.3 36.7.2l36.6-.3 16.2-28c8.9-15.4 28.6-49.5 43.7-75.8l27.6-47.7H448c-38.1 0-48.9.3-49.3 1.2M892.1 756.1c-22.7 37.4-41.2 68.1-41 68.3s19 .1 41.7-.2l41.2-.5v-67.8c0-37.4-.1-67.9-.2-67.9-.2 0-18.9 30.6-41.7 68.1M300.3 860.7c-11.1 19.2-24.8 43-30.7 53L259.1 932h122.7l-30.4-52.7c-16.8-29-30.6-52.8-30.8-53-.1-.2-9.3 15.3-20.3 34.4M713.3 827.7c.3 1.4 32.1 76.7 41.9 99.5l2 4.8h30.3l30.3-52.4c16.6-28.8 30.2-52.6 30.2-53 0-.3-30.4-.6-67.6-.6-63.9 0-67.6.1-67.1 1.7"/><path fill="#F59E0B" d="m647.7 565-26.5 46 13.2 30.7 13.2 30.8 57.2.3c41.1.1 57.2-.1 57.2-.9s-85.7-150.3-87.5-152.7c-.1-.1-12.1 20.5-26.8 45.8M579.7 683.2c-.8 1.3-13.6 23.4-28.5 49.1l-27 46.8 14.1 20.5 14 20.4h59.4c32.6 0 59.3-.2 59.3-.3 0-.2-17.9-31.4-39.8-69.3l-39.8-68.9-5.1-.3c-4.5-.3-5.4 0-6.6 2M891.3 825l-40.2.5 30.6 53 30.6 53 10.9-.3 10.8-.3v-53.5c0-42.2-.3-53.4-1.2-53.2-.7.2-19.4.5-41.5.8"/><path fill="#F59E0B" d="M857 517.4c0 .4 75.9 131.9 76.6 132.5.2.2.4-29.6.4-66.2V517h-38.5c-21.2 0-38.5.2-38.5.4M324.2 830.8c1.8 3.2 15.7 27.3 30.8 53.5 26.9 46.6 27.6 47.7 30.6 47.7 2.4 0 3.4-.6 4.3-2.8 2.6-5.6 44.1-103.3 44.1-103.8 0-.2-25.5-.4-56.6-.4h-56.5zM846.2 831.7c-22 37.9-56.5 97.9-56.9 99s10.3 1.3 61.1 1.3c33.9 0 61.6-.2 61.6-.3 0-.5-60.9-105.9-61.4-106.5-.2-.2-2.2 2.7-4.4 6.5"/><path fill="#F59E0B" d="M760.7 675.2c-4.6 7.3-82.7 143.2-82.7 143.9 0 .5 7.1.9 15.9.9h15.9l1.2 3 1.2 3h68.4c39.6 0 68.5-.4 68.8-.9.5-.7-84.8-149.8-86.7-151.8-.3-.2-1.2.6-2 1.9M249.7 876.7c-11.9 28.5-21.9 52.6-22.2 53.5-.7 1.7.4 1.8 15.1 1.8h15.9l27.8-48.3c15.3-26.5 29.1-50.6 30.8-53.5l3.1-5.2h-48.9z"/><path fill="#F59E0B" d="M895.5 449.7c-20.9 36.1-38.1 66-38.3 66.5-.2.4 17 .8 38.2.8H934v-66.5c0-36.6-.1-66.5-.3-66.5-.1 0-17.4 29.6-38.2 65.7M367.5 743.3c-22.5 39.1-42.2 73.2-43.8 75.9L321 824h113.8l13-30.6 13.1-30.7-24.6-42.6c-13.5-23.4-25.3-43.8-26.2-45.2l-1.6-2.6z"/><path fill="#F59E0B" d="M648 673.2c.1.7.7 2.4 1.5 3.8s1.4 2.8 1.5 3.2c0 .4-13.5.9-29.9 1l-29.9.3 39 67.5c21.5 37.1 39.3 68.3 39.5 69.2.4 1.3 1.5 1.8 3.8 1.8h3.3l42.3-73.3c23.2-40.2 42.7-73.5 43.3-73.9s-24.9-.8-56.6-.8c-45.6 0-57.8.3-57.8 1.2"/><path fill="#F59E0B" d="M409 672.4c0 1.9 51.4 89.6 52.1 88.9.4-.4 4.9-10.6 10-22.6 5-11.9 9.5-21.7 9.8-21.7.4 0 10.1 13.7 21.6 30.5s21.3 30.1 21.7 29.7 13.1-22.1 28.2-48.2l27.4-47.5-42.4-.3c-23.3-.1-42.4-.6-42.4-1 .1-.4.7-1.8 1.5-3.2 2.9-5.1 4.5-4.9-43-5.2-24.5-.2-44.5.1-44.5.6M282.1 799.2c-5.1 12.3-9.6 22.9-9.8 23.5-.4 1 4.7 1.3 23.5 1.3h24.1l-13.4-23.2c-7.4-12.8-13.8-23.4-14.3-23.6-.4-.1-5 9.8-10.1 22"/><path fill="#F59E0B" d="m313.7 723.7-21.6 51.7 13.7 23.8c7.5 13.1 14 23.8 14.3 23.8.4 0 19.7-33 42.9-73.3 23.3-40.2 43-74.2 43.8-75.5l1.4-2.2h-72.9z"/><path fill="#F59E0B" d="M398.7 520.2c-.3.7-7.6 18.2-16.2 38.8-8.7 20.6-15.8 37.9-15.9 38.5-.1.5-.5 1.5-.9 2.1-.8 1.3-29.7 70.4-29.7 71 0 .2 16.5.3 36.7.2l36.6-.3 16.2-28c8.9-15.4 28.6-49.5 43.7-75.8l27.6-47.7H448c-38.1 0-48.9.3-49.3 1.2M892.1 756.1c-22.7 37.4-41.2 68.1-41 68.3s19 .1 41.7-.2l41.2-.5v-67.8c0-37.4-.1-67.9-.2-67.9-.2 0-18.9 30.6-41.7 68.1M300.3 860.7c-11.1 19.2-24.8 43-30.7 53L259.1 932h122.7l-30.4-52.7c-16.8-29-30.6-52.8-30.8-53-.1-.2-9.3 15.3-20.3 34.4M713.3 827.7c.3 1.4 32.1 76.7 41.9 99.5l2 4.8h30.3l30.3-52.4c16.6-28.8 30.2-52.6 30.2-53 0-.3-30.4-.6-67.6-.6-63.9 0-67.6.1-67.1 1.7"/></g></svg>