<svg xmlns="http://www.w3.org/2000/svg" width="420" height="270" viewBox="0 0 4200 2700"><title>Adaptation AI</title><g fill="none"><path fill="#FFFFFF" d="M2443.7 740.7c-.4.3-.7 3.5-.7 7v6.3h14v-14h-6.3c-3.5 0-6.7.3-7 .7M2226 829v7h14v-14h-14zM2420.2 841.7l.3 6.8 6.8.3 6.7.3V835h-14.1zM2332.2 869.7l.3 6.8 6.8.3 6.7.3V863h-14.1zM2383 938v10h20v-20h-20zM2190 938v7h15v-14h-15zM2285 944.5V958h27v-27h-27zM2300 990v18h-39.9l-.3-13.3-.3-13.2-13.2-.3-13.3-.3v28.1h26v52h43v20h-12v17h12l-.1 134.2c0 87.2-.4 133.6-1 132.3-.5-1.1-30.6-72.7-66.7-159l-65.8-157-74.8-.3-74.9-.2.6 3.7c7 44.4-.5 92.2-20.9 133.3-12.2 24.5-25.7 43.1-45.1 62.2l-11 10.8 35.8.2 35.8.3-43.9 76c-24.2 41.8-44 76.3-44 76.7 0 .5 19.9.8 44.3.8h44.3l34.9-83.3c19.2-45.7 35.7-85.2 36.8-87.6l1.9-4.4 24 55.9c13.1 30.7 24.2 56.2 24.6 56.5.4.4 12.4-19.6 26.7-44.4s26.4-45 26.9-45c.8.1 78.1 133 86.3 148.3 1.9 3.6 22.8 40.1 46.5 81.2l43.1 74.8 2-3.3c16-26.5 75.9-124.6 78.3-128.5l3.4-5.2v-35.1l-38.7-67.1c-21.4-37-38.7-67.6-38.5-68 .1-.5 17.5-30.8 38.7-67.5l38.5-66.6V1047l-8.7-.2c-4.9-.1-13.2-.1-18.5.1l-9.8.3V995h-56v52h-45v-34.9l13.8-.3 13.7-.3.3-19.8.2-19.7h-40z"/><path fill="#FFFFFF" d="M2204 1031v7.1l6.8-.3 6.7-.3.3-6.8.3-6.7H2204zM1494.8 1847.8c-16.9 37.8-31 69.5-31.4 70.5-.6 1.6.1 1.8 8.7 1.5l9.3-.3 7-16.2 7.1-16.2 38-.1h38l6.8 15.3c3.7 8.3 7.1 15.8 7.6 16.5.5.9 3.2 1.2 9.8 1l9-.3-31.5-70.3-31.6-70.2h-16.1zm54.6-11.1c8 18.2 14.6 33.4 14.6 33.7s-13.8.6-30.6.6c-27 0-30.5-.2-30-1.5 4.8-12.5 30.2-68.2 30.7-67.2.4.6 7.3 16.1 15.3 34.4M1691 1805.1v26.1l-4.2-3.6c-10.7-9.2-27.8-12.9-44-9.5-18.8 3.9-33.1 18.7-37.3 38.4-5.9 27.9 8.1 55 32.3 62.5 17.3 5.3 35.9 2.1 48.9-8.6l4.3-3.5v13.1h16v-141h-16zm-24.4 29.4c19.9 5.9 29.4 28.3 21.3 50-3 8-10.4 15.4-18.2 18.3-7.9 3-20.4 3-28.4.1-7.7-2.9-15.2-10.4-18.3-18.5-3.2-8.3-3.2-22.4 0-30.9s10.7-15.7 19.2-18.4c7.6-2.4 17.6-2.7 24.4-.6M2599.5 1848.2c-17 38-31.1 69.7-31.3 70.5-.3 1.1 1.4 1.3 8.9 1.1l9.3-.3 7-16.2 7.1-16.3h76l7.2 16.3 7.2 16.2 9.5.3 9.5.3-12.5-27.8c-6.9-15.3-21.1-47-31.6-70.6l-19.2-42.7h-16.1zm54.4-12.5c8.3 18.9 15.1 34.5 15.1 34.8s-13.8.5-30.6.5c-28.7 0-30.6-.1-30-1.8 1.7-4.4 30-68.1 30.2-67.9.1.1 7 15.6 15.3 34.4M2720 1849.5v70.5h17v-141h-17zM2251.4 1783.4c-4.6 4.6-4.8 10.4-.5 14.6 5.1 5.2 11.1 5.2 16.2 0 4.3-4.2 4.1-10-.5-14.6-2.8-2.8-4.2-3.4-7.6-3.4s-4.8.6-7.6 3.4M1999.5 1789.7c-1.6.2-4.9.6-7.2.9l-4.3.5v26.8l-10.2.3-10.3.3-.3 7.2-.3 7.3h21.1v31.7c0 36 .6 40.1 6.8 47.4 5.4 6.2 11.9 8.9 21.9 8.9 6.2 0 9.8-.6 14.9-2.4 3.6-1.3 7-2.8 7.6-3.4.5-.5-.3-3.5-2.1-7.5l-3-6.7-4.7 2c-11.2 4.9-21.7 3.1-24.1-4-.8-2.4-1.2-13.3-1.2-34.8l-.1-31.2h32v-15h-32v-13.9c0-7.7-.3-14.1-.7-14.3-.5-.2-2.1-.2-3.8-.1M2195.5 1789.7c-1.6.2-4.9.6-7.2.9l-4.3.5v26.8l-10.2.3-10.3.3-.3 7.2-.3 7.3h21.1v31.7c0 36 .6 40.1 6.8 47.4 5.4 6.2 11.9 8.9 21.9 8.9 6.2 0 9.8-.6 14.9-2.4 3.6-1.3 7-2.8 7.6-3.4.5-.5-.3-3.5-2.1-7.5l-3-6.7-4.8 2.1c-6.3 2.7-13.1 3.4-17.8 1.9-2.9-.9-4.1-2.1-5.6-5.4-1.7-3.7-1.9-6.9-1.9-35.4V1833h32v-15h-32v-13.9c0-7.7-.3-14.1-.7-14.3-.5-.2-2.1-.2-3.8-.1M1764 1819c-31.8 8.6-47.2 44.9-32 75.1 14.2 28.1 53.3 36.5 76.8 16.4l4.2-3.7v13.2h16v-102.1l-7.7.3-7.8.3-.3 6.2-.3 6.2-5.9-4.3c-11.7-8.6-28.4-11.6-43-7.6m30.2 17.7c19 8.5 25.6 35.4 13.3 54-6.3 9.5-16.1 14.3-29.5 14.3-10.2 0-17.7-2.7-24.2-8.8-16.7-15.6-14-46.8 4.9-57.9 10.2-5.9 24.4-6.6 35.5-1.6M1892.8 1818.6c-7.7 1.8-15 5.6-20.4 10.6l-4.4 4.1V1818h-16v142.1l7.8-.3 7.7-.3.3-26.3.2-26.2 5.3 4.1c10.1 8.1 21.8 11.6 35 10.5 23-1.9 40.1-16.3 45.2-37.8 1.9-8.1 1.9-20.6 0-28.7-6.4-26.8-33.5-43.2-60.7-36.5m25.4 16.9c13.6 4.8 22 20.4 20.4 37.7-1.6 17.7-10.8 28.5-27.1 31.8-16.7 3.4-32.6-4.2-39.3-18.9-3.4-7.3-4.2-20.1-1.8-28.3 3.2-11.2 11.5-19.8 22.5-23.3 5.7-1.9 18.6-1.3 25.3 1M2089.4 1818.5c-26.8 5.8-43.9 32.2-39 60.1 4.1 23.7 21.4 39.9 45.7 42.8 11.9 1.5 27.3-3.2 35.8-10.9l4.1-3.7v13.2h17l-.2-50.8-.3-50.7h-16l-.3 6.3-.3 6.3-4.2-3.5c-11.3-9.2-26.8-12.5-42.3-9.1m22.1 16c16.5 4.3 26.4 18.9 25.3 37.4-.8 13.4-7.6 24.4-18.6 29.8-7.9 3.9-22 4.5-30.3 1.4-7.9-3-14.1-8.8-18.1-16.9-3.1-6.2-3.3-7.4-3.3-16.7 0-7.4.5-11.2 1.8-14.4 7-17.1 24.5-25.4 43.2-20.6M2326.6 1818.1c-7.3 1.7-17 7.3-22.8 13.1-9.9 9.9-15.1 23-15.1 38.3 0 24.5 13.6 43.2 36.2 49.9 6.9 2 22.6 2.1 30 .1 13.2-3.5 25.4-13.2 31.1-24.8 15.1-30.7-.4-68-31.5-76.2-6.5-1.6-21.6-1.9-27.9-.4m19.9 15c8 1.5 14.2 4.8 19.4 10.4s7.6 10.8 9.1 19.6c2.9 16.4-4.9 32.2-18.9 38.8-4.9 2.3-6.9 2.6-16.1 2.6-9.4 0-11.1-.3-16.1-2.8-6.6-3.2-13.2-9.9-16.2-16.5-1.8-3.9-2.2-6.5-2.2-15.7 0-9.8.3-11.6 2.6-16.6 5-10.6 13.8-17.6 24.9-19.8 6.3-1.2 6.9-1.2 13.5 0M2441.8 1819.3c-3.7 1.3-8.6 3.8-10.7 5.5l-4 3.2-.3-4.7-.3-4.8h-16l-.3 50.7-.2 50.8h17v-30.8c0-34.3.5-37.8 6.3-45.3 5-6.5 12.4-10.2 21.7-10.7 11.1-.6 18.2 1.6 24 7.6 7.2 7.5 7.3 8.3 7.7 45.9l.4 33.3h16l-.3-35.3c-.3-33.8-.4-35.4-2.6-40.7-4.6-11.3-13.1-19.8-24.2-24.1-4.1-1.6-8.3-2.3-16.5-2.6-9.6-.3-11.8-.1-17.7 2M2251 1869v51h16v-102h-16z"/><path fill="#FFFFFF" d="M1914.7 1260.2c-.3.7-7.6 18.2-16.2 38.8-8.7 20.6-15.8 37.9-15.9 38.5-.1.5-.5 1.5-.9 2.1-.8 1.3-29.7 70.4-29.7 71 0 .2 16.5.3 36.7.2l36.6-.3 16.2-28c8.9-15.4 28.6-49.5 43.7-75.8l27.6-47.7H1964c-38.1 0-48.9.3-49.3 1.2M2408.1 1496.1c-22.7 37.4-41.2 68.1-41 68.3s19 .1 41.7-.2l41.2-.5v-67.8c0-37.4-.1-67.9-.2-67.9-.2 0-18.9 30.6-41.7 68.1M1816.3 1600.7c-11.1 19.2-24.8 43-30.7 53l-10.5 18.3h122.7l-30.4-52.7c-16.8-29-30.6-52.8-30.8-53-.1-.2-9.3 15.3-20.3 34.4M2229.3 1567.7c.3 1.4 32.1 76.7 41.9 99.5l2 4.8h30.3l30.3-52.4c16.6-28.8 30.2-52.6 30.2-53 0-.3-30.4-.6-67.6-.6-63.9 0-67.6.1-67.1 1.7"/><path fill="#FFFFFF" d="m2163.7 1305-26.5 46 13.2 30.7 13.2 30.8 57.2.3c41.1.1 57.2-.1 57.2-.9s-85.7-150.3-87.5-152.7c-.1-.1-12.1 20.5-26.8 45.8M2095.7 1423.2c-.8 1.3-13.6 23.4-28.5 49.1l-27 46.8 14.1 20.5 14 20.4h59.4c32.6 0 59.3-.2 59.3-.3 0-.2-17.9-31.4-39.8-69.3l-39.8-68.9-5.1-.3c-4.5-.3-5.4 0-6.6 2M2407.3 1565l-40.2.5 30.6 53 30.6 53 10.9-.3 10.8-.3v-53.5c0-42.2-.3-53.4-1.2-53.2-.7.2-19.4.5-41.5.8"/><path fill="#FFFFFF" d="M2373 1257.4c0 .4 75.9 131.9 76.6 132.5.2.2.4-29.6.4-66.2V1257h-38.5c-21.2 0-38.5.2-38.5.4M1840.2 1570.8c1.8 3.2 15.7 27.3 30.8 53.5 26.9 46.6 27.6 47.7 30.6 47.7 2.4 0 3.4-.6 4.3-2.8 2.6-5.6 44.1-103.3 44.1-103.8 0-.2-25.5-.4-56.6-.4h-56.5zM2362.2 1571.7c-22 37.9-56.5 97.9-56.9 99s10.3 1.3 61.1 1.3c33.9 0 61.6-.2 61.6-.3 0-.5-60.9-105.9-61.4-106.5-.2-.2-2.2 2.7-4.4 6.5"/><path fill="#FFFFFF" d="M2276.7 1415.2c-4.6 7.3-82.7 143.2-82.7 143.9 0 .5 7.1.9 15.9.9h15.9l1.2 3 1.2 3h68.4c39.6 0 68.5-.4 68.8-.9.5-.7-84.8-149.8-86.7-151.8-.3-.2-1.2.6-2 1.9M1765.7 1616.7c-11.9 28.5-21.9 52.6-22.2 53.5-.7 1.7.4 1.8 15.1 1.8h15.9l27.8-48.3c15.3-26.5 29.1-50.6 30.8-53.5l3.1-5.2h-48.9z"/><path fill="#FFFFFF" d="M2411.5 1189.7c-20.9 36.1-38.1 66-38.3 66.5-.2.4 17 .8 38.2.8h38.6v-66.5c0-36.6-.1-66.5-.3-66.5-.1 0-17.4 29.6-38.2 65.7M1883.5 1483.3c-22.5 39.1-42.2 73.2-43.8 75.9l-2.7 4.8h113.8l13-30.6 13.1-30.7-24.6-42.6c-13.5-23.4-25.3-43.8-26.2-45.2l-1.6-2.6z"/><path fill="#FFFFFF" d="M2164 1413.2c.1.7.7 2.4 1.5 3.8s1.4 2.8 1.5 3.2c0 .4-13.5.9-29.9 1l-29.9.3 39 67.5c21.5 37.1 39.3 68.3 39.5 69.2.4 1.3 1.5 1.8 3.8 1.8h3.3l42.3-73.3c23.2-40.2 42.7-73.5 43.3-73.9s-24.9-.8-56.6-.8c-45.6 0-57.8.3-57.8 1.2"/><path fill="#FFFFFF" d="M1925 1412.4c0 1.9 51.4 89.6 52.1 88.9.4-.4 4.9-10.6 10-22.6 5-11.9 9.5-21.7 9.8-21.7.4 0 10.1 13.7 21.6 30.5s21.3 30.1 21.7 29.7 13.1-22.1 28.2-48.2l27.4-47.5-42.4-.3c-23.3-.1-42.4-.6-42.4-1 .1-.4.7-1.8 1.5-3.2 2.9-5.1 4.5-4.9-43-5.2-24.5-.2-44.5.1-44.5.6M1798.1 1539.2c-5.1 12.3-9.6 22.9-9.8 23.5-.4 1 4.7 1.3 23.5 1.3h24.1l-13.4-23.2c-7.4-12.8-13.8-23.4-14.3-23.6-.4-.1-5 9.8-10.1 22"/><path fill="#FFFFFF" d="m1829.7 1463.7-21.6 51.7 13.7 23.8c7.5 13.1 14 23.8 14.3 23.8.4 0 19.7-33 42.9-73.3 23.3-40.2 43-74.2 43.8-75.5l1.4-2.2h-72.9z"/><path fill="#FFFFFF" d="M1914.7 1260.2c-.3.7-7.6 18.2-16.2 38.8-8.7 20.6-15.8 37.9-15.9 38.5-.1.5-.5 1.5-.9 2.1-.8 1.3-29.7 70.4-29.7 71 0 .2 16.5.3 36.7.2l36.6-.3 16.2-28c8.9-15.4 28.6-49.5 43.7-75.8l27.6-47.7H1964c-38.1 0-48.9.3-49.3 1.2M2408.1 1496.1c-22.7 37.4-41.2 68.1-41 68.3s19 .1 41.7-.2l41.2-.5v-67.8c0-37.4-.1-67.9-.2-67.9-.2 0-18.9 30.6-41.7 68.1M1816.3 1600.7c-11.1 19.2-24.8 43-30.7 53l-10.5 18.3h122.7l-30.4-52.7c-16.8-29-30.6-52.8-30.8-53-.1-.2-9.3 15.3-20.3 34.4M2229.3 1567.7c.3 1.4 32.1 76.7 41.9 99.5l2 4.8h30.3l30.3-52.4c16.6-28.8 30.2-52.6 30.2-53 0-.3-30.4-.6-67.6-.6-63.9 0-67.6.1-67.1 1.7"/></g></svg>